<svg xmlns="http://www.w3.org/2000/svg" width="50" height="50" viewBox="0 0 50 50" fill="none">
<path d="M14.521 17.4502L24.1076 22.6127V19.643C24.1076 19.1499 24.5073 18.7502 25.0004 18.7502C25.4935 18.7502 25.8933 19.1499 25.8933 19.643V22.6127L35.4799 17.4502C35.6256 17.3717 35.716 17.2192 35.7147 17.0537V6.85105L33.4594 8.06355C33.0249 8.29729 32.4833 8.13459 32.2495 7.70016C32.0158 7.26573 32.1785 6.72407 32.6129 6.49034L34.7228 5.3573L25.212 0.234978C25.0799 0.163862 24.9209 0.163862 24.7888 0.234978L15.2781 5.3573L17.3879 6.49123C17.8224 6.72496 17.9851 7.26662 17.7513 7.70105C17.5176 8.13548 16.9759 8.29818 16.5415 8.06444L14.2861 6.85105V17.0537C14.2849 17.2192 14.3753 17.3717 14.521 17.4502ZM20.6424 9.26444C20.7546 9.05575 20.9451 8.9002 21.172 8.83204C21.3989 8.76388 21.6436 8.7887 21.8522 8.90105L25.0004 10.5939L28.1486 8.89748C28.5831 8.66374 29.1247 8.82644 29.3585 9.26087C29.5922 9.6953 29.4295 10.237 28.9951 10.4707L25.8933 12.143V14.2859C25.8933 14.779 25.4935 15.1787 25.0004 15.1787C24.5073 15.1787 24.1076 14.779 24.1076 14.2859V12.143L21.0058 10.4761C20.7966 10.3639 20.6407 10.173 20.5725 9.9457C20.5043 9.71835 20.5295 9.47322 20.6424 9.26444Z" fill="#43B5E0"/>
<path d="M22.1261 41.0723L21.6797 42.858H28.3208L27.8743 41.0723H22.1261Z" fill="#43B5E0"/>
<path d="M16.1377 39.2857H20.7314L21.1779 37.5H17.1797L16.1377 39.2857Z" fill="#43B5E0"/>
<path d="M19.2628 33.9277L18.2217 35.7135H21.6244L22.0708 33.9277H19.2628Z" fill="#43B5E0"/>
<path d="M26.9817 37.5H23.0192L22.5728 39.2857H27.4281L26.9817 37.5Z" fill="#43B5E0"/>
<path d="M14.0547 42.858H19.8386L20.285 41.0723H15.0967L14.0547 42.858Z" fill="#43B5E0"/>
<path d="M29.7153 41.0723L30.1618 42.858H35.9457L34.9037 41.0723H29.7153Z" fill="#43B5E0"/>
<path d="M26.0885 33.9277H23.9118L23.4653 35.7135H26.535L26.0885 33.9277Z" fill="#43B5E0"/>
<path d="M30.7377 33.9277H27.9297L28.3761 35.7135H31.7788L30.7377 33.9277Z" fill="#43B5E0"/>
<path d="M36.8544 35.2513L43.2062 19.0754C43.3241 18.7781 43.2739 18.4405 43.0747 18.1903C42.8756 17.9401 42.5578 17.8156 42.2417 17.8637C41.9256 17.9119 41.6593 18.1255 41.5437 18.4236L35.6509 33.4236L33.0616 29.4906C32.7423 28.9279 32.1478 28.5776 31.5009 28.5709H18.4991C17.8657 28.5722 17.28 28.908 16.9589 29.454L14.3464 33.4254L8.45354 18.4254C8.33793 18.1272 8.0717 17.9137 7.75556 17.8655C7.43943 17.8173 7.12167 17.9419 6.92251 18.1921C6.72335 18.4423 6.6732 18.7799 6.79104 19.0772L13.1419 35.2522L4.35264 48.6165C4.17254 48.8907 4.15731 49.2415 4.31297 49.5303C4.46864 49.8191 4.77012 49.9992 5.09818 49.9995H44.9018C45.2298 49.9992 45.5313 49.8191 45.687 49.5303C45.8426 49.2415 45.8274 48.8907 45.6473 48.6165L36.8544 35.2513ZM38.2741 44.1959C38.1144 44.4725 37.8193 44.6427 37.5 44.6424H12.5C12.1813 44.6417 11.8871 44.4713 11.7281 44.1951C11.569 43.919 11.5692 43.579 11.7285 43.3031L17.9785 32.5888C18.1377 32.3131 18.4316 32.143 18.75 32.1424H31.25C31.5683 32.143 31.8622 32.3131 32.0214 32.5888L38.2714 43.3031C38.4317 43.5788 38.4327 43.9192 38.2741 44.1959Z" fill="#43B5E0"/>
<path d="M32.821 37.5H28.8228L29.2692 39.2857H33.8629L32.821 37.5Z" fill="#43B5E0"/>
<path d="M5.86618 15.1786C6.16121 15.1783 6.43704 15.0323 6.60316 14.7885C6.76928 14.5447 6.80423 14.2345 6.69654 13.9599L5.29565 10.3885C5.18004 10.0903 4.91381 9.87674 4.59767 9.82857C4.28154 9.78039 3.96378 9.90497 3.76462 10.1552C3.56546 10.4054 3.51531 10.743 3.63315 11.0402L5.03493 14.6117C5.16901 14.9536 5.49885 15.1786 5.86618 15.1786Z" fill="#43B5E0"/>
<path d="M45.8617 9.88313C45.6408 9.79558 45.3942 9.79969 45.1763 9.89454C44.9585 9.98939 44.7874 10.1672 44.701 10.3885L43.3001 13.9599C43.172 14.2592 43.2169 14.6045 43.4173 14.861C43.6177 15.1175 43.9418 15.2447 44.2632 15.1928C44.5845 15.1409 44.8522 14.9183 44.9617 14.6117L46.3635 11.0403C46.5439 10.5822 46.3194 10.0645 45.8617 9.88313Z" fill="#43B5E0"/>
</svg>