<svg xmlns="http://www.w3.org/2000/svg" width="50" height="50" viewBox="0 0 50 50" fill="none">
<path d="M33.7282 5.60254C33.5707 5.60227 33.417 5.55442 33.2872 5.46526C33.1574 5.37609 33.0575 5.24979 33.0008 5.10289C32.944 4.956 32.933 4.79539 32.9691 4.64211C33.0052 4.48883 33.0868 4.35004 33.2032 4.24395L33.4141 4.05254C35.431 2.36214 37.9776 1.43384 40.6092 1.4297C43.2408 1.42556 45.7903 2.34584 47.8125 4.02988L48.0469 4.24317C48.1927 4.38443 48.2778 4.57692 48.2842 4.77985C48.2905 4.98278 48.2176 5.18022 48.0809 5.33033C47.9442 5.48044 47.7545 5.57143 47.5518 5.58404C47.3492 5.59664 47.1496 5.52987 46.9953 5.39785L46.786 5.20723C45.0496 3.76898 42.8646 2.98384 40.61 2.98798C38.3554 2.99212 36.1733 3.78527 34.4422 5.22988L34.2578 5.39941C34.113 5.5311 33.9239 5.60359 33.7282 5.60254Z" fill="#43B5E0"/>
<path d="M16.629 12.3815C19.162 10.8847 22.0583 10.1146 25.0001 10.1557C27.942 10.1146 30.8383 10.8847 33.3712 12.3815C33.5473 12.4911 33.7598 12.5262 33.9618 12.4792C34.1639 12.4322 34.339 12.3068 34.4486 12.1307C34.5582 11.9546 34.5933 11.7421 34.5463 11.5401C34.4993 11.338 34.3739 11.163 34.1978 11.0534C31.4162 9.40363 28.2338 8.55241 25.0001 8.5932C21.7663 8.55289 18.5839 9.40465 15.8025 11.0549C15.6264 11.1645 15.501 11.3396 15.454 11.5417C15.4069 11.7437 15.4421 11.9561 15.5517 12.1323C15.6613 12.3084 15.8364 12.4338 16.0384 12.4808C16.2405 12.5278 16.4529 12.4927 16.629 12.383V12.3815Z" fill="#43B5E0"/>
<path d="M33.3729 39.1802C30.8398 40.678 27.9427 41.4482 25.0002 41.406C22.0578 41.4482 19.1607 40.678 16.6276 39.1802C16.5404 39.1259 16.4433 39.0894 16.342 39.0726C16.2407 39.0558 16.137 39.0592 16.037 39.0825C15.9369 39.1058 15.8424 39.1485 15.7589 39.2083C15.6754 39.2681 15.6045 39.3438 15.5502 39.431C15.496 39.5182 15.4594 39.6152 15.4426 39.7166C15.4259 39.8179 15.4292 39.9216 15.4525 40.0216C15.4758 40.1216 15.5185 40.2161 15.5783 40.2996C15.6381 40.3832 15.7138 40.4541 15.801 40.5083C18.5827 42.1592 21.7659 43.0105 25.0002 42.9685C28.2347 43.01 31.418 42.1582 34.1994 40.5068C34.3756 40.3972 34.5009 40.2221 34.548 40.02C34.595 39.818 34.5598 39.6056 34.4502 39.4294C34.3406 39.2533 34.1655 39.1279 33.9635 39.0809C33.7615 39.0339 33.549 39.069 33.3729 39.1787V39.1802Z" fill="#43B5E0"/>
<path d="M37.439 8.82932C37.2855 8.96361 37.1906 9.1526 37.1745 9.35593C37.1585 9.55925 37.2226 9.76078 37.3532 9.91746C37.4838 10.0741 37.6704 10.1736 37.8733 10.1945C38.0762 10.2154 38.2792 10.1561 38.439 10.0293C39.0529 9.51733 39.827 9.23692 40.6265 9.23692C41.4259 9.23692 42.2 9.51733 42.814 10.0293C42.8924 10.0979 42.9837 10.1501 43.0826 10.1829C43.1815 10.2157 43.2859 10.2283 43.3898 10.2202C43.4936 10.212 43.5948 10.1831 43.6873 10.1352C43.7798 10.0874 43.8619 10.0215 43.9285 9.94147C43.9952 9.86144 44.0453 9.76888 44.0756 9.66924C44.106 9.5696 44.1162 9.46488 44.1055 9.36126C44.0948 9.25763 44.0635 9.15719 44.0135 9.06584C43.9634 8.97448 43.8956 8.89407 43.814 8.82932C42.9196 8.08276 41.7915 7.67383 40.6265 7.67383C39.4614 7.67383 38.3334 8.08276 37.439 8.82932Z" fill="#43B5E0"/>
<path d="M46.0938 42.1875H44.5312V40.625C44.5312 40.4178 44.4489 40.2191 44.3024 40.0726C44.1559 39.9261 43.9572 39.8438 43.75 39.8438C43.5428 39.8438 43.3441 39.9261 43.1976 40.0726C43.0511 40.2191 42.9688 40.4178 42.9688 40.625V42.1875H41.4062C41.199 42.1875 41.0003 42.2698 40.8538 42.4163C40.7073 42.5628 40.625 42.7615 40.625 42.9688C40.625 43.176 40.7073 43.3747 40.8538 43.5212C41.0003 43.6677 41.199 43.75 41.4062 43.75H42.9688V45.3125C42.9688 45.5197 43.0511 45.7184 43.1976 45.8649C43.3441 46.0114 43.5428 46.0938 43.75 46.0938C43.9572 46.0938 44.1559 46.0114 44.3024 45.8649C44.4489 45.7184 44.5312 45.5197 44.5312 45.3125V43.75H46.0938C46.301 43.75 46.4997 43.6677 46.6462 43.5212C46.7927 43.3747 46.875 43.176 46.875 42.9688C46.875 42.7615 46.7927 42.5628 46.6462 42.4163C46.4997 42.2698 46.301 42.1875 46.0938 42.1875Z" fill="#43B5E0"/>
<path d="M2.34375 10.1562H3.90625V11.7188C3.90625 11.926 3.98856 12.1247 4.13507 12.2712C4.28159 12.4177 4.4803 12.5 4.6875 12.5C4.8947 12.5 5.09341 12.4177 5.23993 12.2712C5.38644 12.1247 5.46875 11.926 5.46875 11.7188V10.1562H7.03125C7.23845 10.1562 7.43716 10.0739 7.58368 9.92743C7.73019 9.78091 7.8125 9.5822 7.8125 9.375C7.8125 9.1678 7.73019 8.96909 7.58368 8.82257C7.43716 8.67606 7.23845 8.59375 7.03125 8.59375H5.46875V7.03125C5.46875 6.82405 5.38644 6.62534 5.23993 6.47882C5.09341 6.33231 4.8947 6.25 4.6875 6.25C4.4803 6.25 4.28159 6.33231 4.13507 6.47882C3.98856 6.62534 3.90625 6.82405 3.90625 7.03125V8.59375H2.34375C2.13655 8.59375 1.93784 8.67606 1.79132 8.82257C1.64481 8.96909 1.5625 9.1678 1.5625 9.375C1.5625 9.5822 1.64481 9.78091 1.79132 9.92743C1.93784 10.0739 2.13655 10.1562 2.34375 10.1562Z" fill="#43B5E0"/>
<path d="M6.31226 32.0312C6.49996 33.3317 7.14961 34.5211 8.14235 35.3819C9.1351 36.2426 10.4046 36.7172 11.7185 36.7188H18.4216C19.5028 36.7175 20.5596 36.3982 21.4607 35.8008L22.831 34.882C23.4717 34.4495 24.2271 34.2183 25.0001 34.2183C25.7732 34.2183 26.5286 34.4495 27.1693 34.882L28.5443 35.8039C29.444 36.3994 30.4989 36.7175 31.5779 36.7188H38.281C39.5949 36.7172 40.8644 36.2426 41.8572 35.3819C42.8499 34.5211 43.4995 33.3317 43.6873 32.0312H6.31226Z" fill="#43B5E0"/>
<path d="M46.8758 21.0938H45.3125V28.9062H46.8758V21.0938Z" fill="#43B5E0"/>
<path d="M43.6875 19.5312H6.3125C6.27578 19.7875 6.25 30.4688 6.25 30.4688H43.75C43.75 30.4688 43.7242 19.7875 43.6875 19.5312ZM30.4688 25C30.4688 25.2072 30.3864 25.4059 30.2399 25.5524C30.0934 25.6989 29.8947 25.7812 29.6875 25.7812H28.125L29.5312 27.6563C29.6556 27.822 29.709 28.0304 29.6796 28.2355C29.6503 28.4406 29.5408 28.6257 29.375 28.75C29.2092 28.8743 29.0009 28.9277 28.7958 28.8984C28.5906 28.8691 28.4056 28.7595 28.2812 28.5937L25.9375 25.4687C25.8504 25.3527 25.7974 25.2147 25.7844 25.0702C25.7714 24.9257 25.7988 24.7804 25.8637 24.6506C25.9286 24.5208 26.0284 24.4117 26.1518 24.3354C26.2752 24.2592 26.4174 24.2188 26.5625 24.2188H28.9062V22.6562H25.5414L23.3883 28.3992C23.3326 28.5485 23.2327 28.6772 23.1019 28.768C22.971 28.8589 22.8155 28.9076 22.6562 28.9076C22.497 28.9076 22.3415 28.8589 22.2106 28.768C22.0798 28.6772 21.9799 28.5485 21.9242 28.3992L19.5805 22.1492C19.5446 22.0531 19.5279 21.9508 19.5316 21.8483C19.5352 21.7457 19.5589 21.6449 19.6015 21.5515C19.6441 21.4581 19.7047 21.3741 19.7797 21.3041C19.8548 21.2341 19.9429 21.1797 20.0391 21.1437C20.1352 21.1078 20.2375 21.0912 20.34 21.0948C20.4426 21.0984 20.5434 21.1222 20.6368 21.1648C20.7301 21.2074 20.8142 21.2679 20.8842 21.343C20.9541 21.4181 21.0086 21.5062 21.0445 21.6023L22.6562 25.9L24.268 21.6031C24.3234 21.4537 24.4233 21.3248 24.5542 21.2337C24.685 21.1427 24.8406 21.0938 25 21.0938H29.6875C29.8947 21.0938 30.0934 21.1761 30.2399 21.3226C30.3864 21.4691 30.4688 21.6678 30.4688 21.875V25ZM42.1875 24.2188C42.1875 24.426 42.1052 24.6247 41.9587 24.7712C41.8122 24.9177 41.6134 25 41.4062 25C41.1991 25 41.0003 24.9177 40.8538 24.7712C40.7073 24.6247 40.625 24.426 40.625 24.2188V22.6562H39.0625C38.8553 22.6562 38.6566 22.5739 38.5101 22.4274C38.3636 22.2809 38.2812 22.0822 38.2812 21.875C38.2812 21.6678 38.3636 21.4691 38.5101 21.3226C38.6566 21.1761 38.8553 21.0938 39.0625 21.0938H41.4062C41.6134 21.0938 41.8122 21.1761 41.9587 21.3226C42.1052 21.4691 42.1875 21.6678 42.1875 21.875V24.2188Z" fill="#43B5E0"/>
<path d="M3.90625 28.9062H4.6875V21.0938H3.90625C3.69905 21.0938 3.50034 21.1761 3.35382 21.3226C3.20731 21.4691 3.125 21.6678 3.125 21.875V28.125C3.125 28.3322 3.20731 28.5309 3.35382 28.6774C3.50034 28.8239 3.69905 28.9062 3.90625 28.9062Z" fill="#43B5E0"/>
<path d="M43.2148 17.9688C42.7719 17.0349 42.0733 16.2456 41.2001 15.6926C40.3269 15.1395 39.3149 14.8452 38.2813 14.8438H11.7188C10.6851 14.8452 9.67308 15.1395 8.79989 15.6926C7.9267 16.2456 7.22813 17.0349 6.78516 17.9688H43.2148Z" fill="#43B5E0"/>
<path d="M35.9375 7.81362C36.1205 7.81372 36.2977 7.74957 36.4383 7.63237C37.6116 6.64932 39.0935 6.11058 40.6242 6.11058C42.1549 6.11058 43.6368 6.64932 44.8101 7.63237C44.9644 7.76172 45.1627 7.82653 45.3636 7.81326C45.5645 7.8 45.7525 7.70968 45.8884 7.56116C46.0243 7.41264 46.0977 7.21737 46.0931 7.01609C46.0886 6.8148 46.0065 6.62304 45.864 6.4808C44.3999 5.24096 42.5435 4.56055 40.625 4.56055C38.7064 4.56055 36.85 5.24096 35.3859 6.4808C35.277 6.59006 35.2029 6.72911 35.1729 6.88043C35.1429 7.03175 35.1583 7.18856 35.2173 7.33111C35.2763 7.47365 35.3762 7.59554 35.5043 7.6814C35.6325 7.76727 35.7832 7.81328 35.9375 7.81362Z" fill="#43B5E0"/>
</svg>