<svg xmlns="http://www.w3.org/2000/svg" width="50" height="50" viewBox="0 0 50 50" fill="none">
<g clip-path="url(#clip0)">
<path d="M12.845 8.33333L13.6783 9.16667H15.8333V7.5H13.6783L12.845 8.33333Z" fill="#43B5E0"/>
<path d="M31.2675 2.5H18.7258C21.5382 5.88042 21.5382 10.7862 18.7258 14.1667H31.2675C28.4664 10.7822 28.4664 5.8845 31.2675 2.5ZM22.5 4.16667C22.9602 4.16667 23.3333 4.53976 23.3333 5C23.3333 5.46024 22.9602 5.83333 22.5 5.83333C22.0398 5.83333 21.6667 5.46024 21.6667 5C21.6667 4.53976 22.0398 4.16667 22.5 4.16667ZM23.3333 12.5H22.5C22.0398 12.5 21.6667 12.1269 21.6667 11.6667C21.6667 11.2064 22.0398 10.8333 22.5 10.8333H23.3333C23.7936 10.8333 24.1667 11.2064 24.1667 11.6667C24.1667 12.1269 23.7936 12.5 23.3333 12.5ZM25 5.83333C24.5398 5.83333 24.1667 5.46024 24.1667 5C24.1667 4.53976 24.5398 4.16667 25 4.16667C25.4602 4.16667 25.8333 4.53976 25.8333 5C25.8333 5.46024 25.4602 5.83333 25 5.83333ZM27.5 12.5H26.6667C26.2064 12.5 25.8333 12.1269 25.8333 11.6667C25.8333 11.2064 26.2064 10.8333 26.6667 10.8333H27.5C27.9602 10.8333 28.3333 11.2064 28.3333 11.6667C28.3333 12.1269 27.9602 12.5 27.5 12.5ZM27.5 5.83333C27.0398 5.83333 26.6667 5.46024 26.6667 5C26.6667 4.53976 27.0398 4.16667 27.5 4.16667C27.9602 4.16667 28.3333 4.53976 28.3333 5C28.3333 5.46024 27.9602 5.83333 27.5 5.83333Z" fill="#43B5E0"/>
<path d="M11.6667 0.833984C7.52461 0.833984 4.16675 4.19185 4.16675 8.33398C4.16675 12.4761 7.52461 15.834 11.6667 15.834C15.8089 15.834 19.1667 12.4761 19.1667 8.33398C19.1667 6.34486 18.3766 4.43721 16.97 3.03068C15.5635 1.62416 13.6559 0.833984 11.6667 0.833984V0.833984ZM15.8334 10.834H14.1667V12.5007C14.1667 13.4211 13.4206 14.1673 12.5001 14.1673H10.8334C9.91294 14.1673 9.16675 13.4211 9.16675 12.5007V10.834H7.50008C6.57961 10.834 5.83341 10.0878 5.83341 9.16732V7.50065C5.83341 6.58018 6.57961 5.83398 7.50008 5.83398H9.16675V4.16732C9.16675 3.24684 9.91294 2.50065 10.8334 2.50065H12.5001C13.4206 2.50065 14.1667 3.24684 14.1667 4.16732V5.83398H15.8334C16.7539 5.83398 17.5001 6.58018 17.5001 7.50065V9.16732C17.5001 10.0878 16.7539 10.834 15.8334 10.834Z" fill="#43B5E0"/>
<path d="M7.50024 7.5V9.16667H9.65524L10.4886 8.33333L9.65524 7.5H7.50024Z" fill="#43B5E0"/>
<path d="M3.6384 12.7422L2.19923 22.3255C1.93668 24.1279 2.92495 25.8801 4.60327 26.5878C6.28158 27.2955 8.22609 26.78 9.3334 25.3339C9.65174 24.9172 9.35174 25.428 13.6142 17.2872C9.64858 18.156 5.58512 16.3047 3.6384 12.7422Z" fill="#43B5E0"/>
<path d="M42.5001 9.16667C42.9603 9.16667 43.3334 8.79357 43.3334 8.33333C43.3334 7.8731 42.9603 7.5 42.5001 7.5C42.0398 7.5 41.6667 7.8731 41.6667 8.33333C41.6667 8.79357 42.0398 9.16667 42.5001 9.16667Z" fill="#43B5E0"/>
<path d="M10.8335 10.3451V12.5001H12.5002V10.3451L11.6668 9.51172L10.8335 10.3451Z" fill="#43B5E0"/>
<path d="M10.8335 6.32297L11.6668 7.1563L12.5002 6.32297V4.16797H10.8335V6.32297Z" fill="#43B5E0"/>
<path d="M34.1666 9.16667C34.6268 9.16667 34.9999 8.79357 34.9999 8.33333C34.9999 7.8731 34.6268 7.5 34.1666 7.5C33.7063 7.5 33.3333 7.8731 33.3333 8.33333C33.3333 8.79357 33.7063 9.16667 34.1666 9.16667Z" fill="#43B5E0"/>
<path d="M45.8333 8.33398C45.8333 4.19185 42.4754 0.833984 38.3333 0.833984C34.1911 0.833984 30.8333 4.19185 30.8333 8.33398C30.8333 12.4761 34.1911 15.834 38.3333 15.834C42.4735 15.8294 45.8287 12.4742 45.8333 8.33398ZM44.9999 8.33398C44.9999 9.7147 43.8806 10.834 42.4999 10.834C41.1192 10.834 39.9999 9.7147 39.9999 8.33398C39.9999 6.95327 41.1192 5.83398 42.4999 5.83398C43.8806 5.83398 44.9999 6.95327 44.9999 8.33398ZM38.3333 1.66732C39.714 1.66732 40.8333 2.78661 40.8333 4.16732C40.8333 5.54803 39.714 6.66732 38.3333 6.66732C36.9525 6.66732 35.8333 5.54803 35.8333 4.16732C35.8333 2.78661 36.9525 1.66732 38.3333 1.66732ZM31.6666 8.33398C31.6666 6.95327 32.7859 5.83398 34.1666 5.83398C35.5473 5.83398 36.6666 6.95327 36.6666 8.33398C36.6666 9.7147 35.5473 10.834 34.1666 10.834C32.7859 10.834 31.6666 9.7147 31.6666 8.33398ZM35.8333 12.5007C35.8333 11.1199 36.9525 10.0007 38.3333 10.0007C39.714 10.0007 40.8333 11.1199 40.8333 12.5007C40.8333 13.8814 39.714 15.0007 38.3333 15.0007C36.9525 15.0007 35.8333 13.8814 35.8333 12.5007Z" fill="#43B5E0"/>
<path d="M38.3333 13.3346C38.7936 13.3346 39.1667 12.9615 39.1667 12.5013C39.1667 12.0411 38.7936 11.668 38.3333 11.668C37.8731 11.668 37.5 12.0411 37.5 12.5013C37.5 12.9615 37.8731 13.3346 38.3333 13.3346Z" fill="#43B5E0"/>
<path d="M47.8002 22.3225L46.3618 12.75C44.4103 16.307 40.3496 18.1543 36.386 17.2883L40.3027 24.7733C41.212 26.4965 43.2307 27.3138 45.0827 26.7086C46.9347 26.1034 48.0813 24.2518 47.7977 22.3242L47.8002 22.3225Z" fill="#43B5E0"/>
<path d="M38.3333 5.00065C38.7936 5.00065 39.1667 4.62756 39.1667 4.16732C39.1667 3.70708 38.7936 3.33398 38.3333 3.33398C37.8731 3.33398 37.5 3.70708 37.5 4.16732C37.5 4.62756 37.8731 5.00065 38.3333 5.00065Z" fill="#43B5E0"/>
<path d="M45.8333 30.9834C45.5889 30.8133 45.2723 30.7865 45.0027 30.9131C44.7331 31.0397 44.5516 31.3005 44.5265 31.5972C44.5013 31.894 44.6364 32.1816 44.8808 32.3518C46.4567 33.4468 48.3333 35.2284 48.3333 37.5009C48.3333 42.9218 37.6483 47.5009 25 47.5009C12.3517 47.5009 1.66667 42.9218 1.66667 37.5009C1.66667 35.9118 2.91167 34.4434 4.16667 33.3634V35.0009C4.16667 35.4612 4.53976 35.8343 5 35.8343C5.46024 35.8343 5.83333 35.4612 5.83333 35.0009V31.6676C5.83333 31.2074 5.46024 30.8343 5 30.8343H0.833333C0.373096 30.8343 0 31.2074 0 31.6676C0 32.1278 0.373096 32.5009 0.833333 32.5009H2.63917C0.895833 34.1284 0 35.8051 0 37.5009C0 44.0434 10.9817 49.1676 25 49.1676C39.0183 49.1676 50 44.0434 50 37.5009C50 35.1318 48.5592 32.8784 45.8333 30.9834Z" fill="#43B5E0"/>
<path d="M32.895 28.3601C32.6327 28.5012 32.3151 28.4917 32.0617 28.3351C31.8083 28.1785 31.6578 27.8987 31.6667 27.6009C31.6756 27.3032 31.8427 27.0329 32.105 26.8918L34.0742 25.8343L25.395 21.1601C25.1484 21.0274 24.8516 21.0274 24.605 21.1601L15.9258 25.8343L17.895 26.8926C18.1573 27.0337 18.3244 27.3041 18.3333 27.6018C18.3422 27.8995 18.1917 28.1793 17.9383 28.3359C17.6849 28.4925 17.3673 28.5021 17.105 28.3609L15 27.2284V36.5059C15.0002 36.8124 15.1685 37.094 15.4383 37.2393L24.1667 41.9393V39.1676C24.1667 38.7074 24.5398 38.3343 25 38.3343C25.4602 38.3343 25.8333 38.7074 25.8333 39.1676V41.9393L34.5617 37.2393C34.8315 37.094 34.9998 36.8124 35 36.5059V27.2284L32.895 28.3601ZM28.7283 30.6101L25.8333 32.1676V34.1676C25.8333 34.6278 25.4602 35.0009 25 35.0009C24.5398 35.0009 24.1667 34.6278 24.1667 34.1676V32.1676L21.2717 30.6118C21.0094 30.4707 20.8423 30.2003 20.8334 29.9026C20.8244 29.6049 20.975 29.325 21.2284 29.1684C21.4817 29.0119 21.7994 29.0023 22.0617 29.1434L25 30.7218L27.9383 29.1384C28.2006 28.9973 28.5183 29.0069 28.7716 29.1634C29.025 29.32 29.1756 29.5999 29.1666 29.8976C29.1577 30.1953 28.9906 30.4657 28.7283 30.6068V30.6101Z" fill="#43B5E0"/>
</g>
<defs>
<clipPath id="clip0">
<rect width="50" height="50" fill="white"/>
</clipPath>
</defs>
</svg>