<svg width="25" height="25" viewBox="0 0 25 25" fill="none" xmlns="http://www.w3.org/2000/svg">
<g clip-path="url(#clip0)">
<path d="M24.2933 18.3475L20.8045 14.8587C19.5585 13.6126 17.4403 14.1111 16.9419 15.7309C16.5681 16.8523 15.3221 17.4753 14.2006 17.2261C11.7086 16.6031 8.3444 13.3634 7.7214 10.7468C7.3476 9.62537 8.0952 8.37936 9.21661 8.00561C10.8364 7.5072 11.3348 5.38899 10.0888 4.14298L6.59999 0.654155C5.60319 -0.218052 4.10798 -0.218052 3.23577 0.654155L0.868352 3.02157C-1.49906 5.51359 1.11755 12.1174 6.9738 17.9737C12.83 23.8299 19.4339 26.5712 21.9259 24.0791L24.2933 21.7117C25.1656 20.7149 25.1656 19.2197 24.2933 18.3475Z" fill="#43B5E0"/>
</g>
<defs>
<clipPath id="clip0">
<rect width="25" height="25" fill="white"/>
</clipPath>
</defs>
</svg>