<svg xmlns="http://www.w3.org/2000/svg" width="20" height="20" viewBox="0 0 20 20" fill="none">
<g clip-path="url(#clip0)">
<path d="M19.8239 3.97363L13.7583 10.0002L19.8239 16.0267C19.9335 15.7975 20.0001 15.5441 20.0001 15.2736V4.72672C20.0001 4.45613 19.9335 4.20281 19.8239 3.97363Z" fill="#ABAFE5"/>
<path d="M18.2419 2.96875H1.75748C1.48689 2.96875 1.23357 3.03527 1.00439 3.14492L8.75686 10.8583C9.44233 11.5438 10.557 11.5438 11.2425 10.8583L18.9949 3.14492C18.7658 3.03527 18.5124 2.96875 18.2419 2.96875Z" fill="#ABAFE5"/>
<path d="M0.176172 3.97363C0.0665234 4.20281 0 4.45613 0 4.72672V15.2736C0 15.5442 0.0665234 15.7975 0.176172 16.0267L6.24176 10.0002L0.176172 3.97363Z" fill="#ABAFE5"/>
<path d="M12.9294 10.8281L12.071 11.6864C10.9289 12.8286 9.07041 12.8286 7.92826 11.6864L7.06998 10.8281L1.00439 16.8546C1.23357 16.9643 1.48689 17.0308 1.75748 17.0308H18.2419C18.5124 17.0308 18.7658 16.9643 18.9949 16.8546L12.9294 10.8281Z" fill="#ABAFE5"/>
</g>
<defs>
<clipPath id="clip0">
<rect width="20" height="20" fill="white"/>
</clipPath>
</defs>
</svg>